PathFileType	4	(X/Y/Z)	C:/Users/dbak576/Desktop/Duncan Bakke Modelling Files/H22s1/Static_H22s1.trc	
DataRate	CameraRate	NumFrames	NumMarkers	Units	OrigDataRate	OrigDataStartFrame	OrigNumFrames	
200.00	200.00	2	240	mm	200.00	279	37	
Frame#	Time	LFEO			LFEA			LFEL			LFEP			LTIO			LTIA			LTIL			LTIP			PELO			PELA			PELL			PELP			RFEO			RFEA			RFEL			RFEP			RTIO			RTIA			RTIL			RTIP			LFHD			RFHD			LBHD			RBHD			C7			T10			CLAV			STRN			RBack			LASI			RASI			LPSI			RPSI			RACR1			RUA1			RElbow			RElbowM			RFA1			RWRR			RWRU			RCAR			LACR1			LUA1			LElbow			LElbowM			LFA1			LWRR			LWRU			LCAR			RTH1			RTH3			RTH2			RTH4			RLFC			RMFC			RTB1			RTB3			RTB2			RTB4			RLMAL			RMMAL			RCAL			RMT1			RMT5			RToe			LTH1			LTH3			LTH2			LTH4			LLFC			LMFC			LTB1			LTB3			LTB2			LTB4			LLMAL			LMMAL			LCAL			LMT1			LMT5			LToe			CX			LAJC			LFEM1			LFEM10			LFEM11			LFEM12			LFEM13			LFEM14			LFEM15			LFEM16			LFEM2			LFEM3			LFEM4			LFEM5			LFEM6			LFEM7			LFEM8			LFEM9			LFOO1			LFOO2			LFOO3			LFOO4			LFOO5			LFOO6			LHJC			LIC			LIP			LIS			LIT			LKJC			LSI			LTIB1			LTIB10			LTIB11			LTIB12			LTIB13			LTIB14			LTIB15			LTIB16			LTIB2			LTIB3			LTIB4			LTIB5			LTIB6			LTIB7			LTIB8			LTIB9			LeftThighOrigin			LeftTibOrigin			LowerBodyModelVer			LowerTorsoOrigin			MidHJC			MidPelvis			OAnatomy			OCalRig			OHead			OLeftFemur			OLeftFoot			OLeftTibia			OPelvis			ORightFemur			ORightFoot			ORightTibia			OThorax			Oglobal			PELOrigin			RAJC			RFEM1			RFEM10			RFEM11			RFEM12			RFEM13			RFEM14			RFEM15			RFEM16			RFEM2			RFEM3			RFEM4			RFEM5			RFEM6			RFEM7			RFEM8			RFEM9			RFOO1			RFOO2			RFOO3			RFOO4			RFOO5			RFOO6			RHJC			RIC			RIP			RIS			RIT			RKJC			RSI			RTIB1			RTIB10			RTIB11			RTIB12			RTIB13			RTIB14			RTIB15			RTIB16			RTIB2			RTIB3			RTIB4			RTIB5			RTIB6			RTIB7			RTIB8			RTIB9			RightThighOrigin			RightTibOrigin			SACR			SP			ThoraxOrigin			XAnatomy			XCalRig			XHead			XLeftFemur			XLeftFoot			XLeftTibia			XPelvis			XRightFemur			XRightFoot			XRightTibia			XThorax			Xglobal			YAnatomy			YCalRig			YHead			YLeftFemur			YLeftFoot			YLeftTibia			YPelvis			YRightFemur			YRightFoot			YRightTibia			YThorax			Yglobal			ZAnatomy			ZCalRig			ZHead			ZLeftFemur			ZLeftFoot			ZLeftTibia			ZPelvis			ZRightFemur			ZRightFoot			ZRightTibia			ZThorax			Zglobal			avPEL			avTHOR			newLfootmid			newLfootside			newRfootmid			newRfootside			
		X1	Y1	Z1	X2	Y2	Z2	X3	Y3	Z3	X4	Y4	Z4	X5	Y5	Z5	X6	Y6	Z6	X7	Y7	Z7	X8	Y8	Z8	X9	Y9	Z9	X10	Y10	Z10	X11	Y11	Z11	X12	Y12	Z12	X13	Y13	Z13	X14	Y14	Z14	X15	Y15	Z15	X16	Y16	Z16	X17	Y17	Z17	X18	Y18	Z18	X19	Y19	Z19	X20	Y20	Z20	X21	Y21	Z21	X22	Y22	Z22	X23	Y23	Z23	X24	Y24	Z24	X25	Y25	Z25	X26	Y26	Z26	X27	Y27	Z27	X28	Y28	Z28	X29	Y29	Z29	X30	Y30	Z30	X31	Y31	Z31	X32	Y32	Z32	X33	Y33	Z33	X34	Y34	Z34	X35	Y35	Z35	X36	Y36	Z36	X37	Y37	Z37	X38	Y38	Z38	X39	Y39	Z39	X40	Y40	Z40	X41	Y41	Z41	X42	Y42	Z42	X43	Y43	Z43	X44	Y44	Z44	X45	Y45	Z45	X46	Y46	Z46	X47	Y47	Z47	X48	Y48	Z48	X49	Y49	Z49	X50	Y50	Z50	X51	Y51	Z51	X52	Y52	Z52	X53	Y53	Z53	X54	Y54	Z54	X55	Y55	Z55	X56	Y56	Z56	X57	Y57	Z57	X58	Y58	Z58	X59	Y59	Z59	X60	Y60	Z60	X61	Y61	Z61	X62	Y62	Z62	X63	Y63	Z63	X64	Y64	Z64	X65	Y65	Z65	X66	Y66	Z66	X67	Y67	Z67	X68	Y68	Z68	X69	Y69	Z69	X70	Y70	Z70	X71	Y71	Z71	X72	Y72	Z72	X73	Y73	Z73	X74	Y74	Z74	X75	Y75	Z75	X76	Y76	Z76	X77	Y77	Z77	X78	Y78	Z78	X79	Y79	Z79	X80	Y80	Z80	X81	Y81	Z81	X82	Y82	Z82	X83	Y83	Z83	X84	Y84	Z84	X85	Y85	Z85	X86	Y86	Z86	X87	Y87	Z87	X88	Y88	Z88	X89	Y89	Z89	X90	Y90	Z90	X91	Y91	Z91	X92	Y92	Z92	X93	Y93	Z93	X94	Y94	Z94	X95	Y95	Z95	X96	Y96	Z96	X97	Y97	Z97	X98	Y98	Z98	X99	Y99	Z99	X100	Y100	Z100	X101	Y101	Z101	X102	Y102	Z102	X103	Y103	Z103	X104	Y104	Z104	X105	Y105	Z105	X106	Y106	Z106	X107	Y107	Z107	X108	Y108	Z108	X109	Y109	Z109	X110	Y110	Z110	X111	Y111	Z111	X112	Y112	Z112	X113	Y113	Z113	X114	Y114	Z114	X115	Y115	Z115	X116	Y116	Z116	X117	Y117	Z117	X118	Y118	Z118	X119	Y119	Z119	X120	Y120	Z120	X121	Y121	Z121	X122	Y122	Z122	X123	Y123	Z123	X124	Y124	Z124	X125	Y125	Z125	X126	Y126	Z126	X127	Y127	Z127	X128	Y128	Z128	X129	Y129	Z129	X130	Y130	Z130	X131	Y131	Z131	X132	Y132	Z132	X133	Y133	Z133	X134	Y134	Z134	X135	Y135	Z135	X136	Y136	Z136	X137	Y137	Z137	X138	Y138	Z138	X139	Y139	Z139	X140	Y140	Z140	X141	Y141	Z141	X142	Y142	Z142	X143	Y143	Z143	X144	Y144	Z144	X145	Y145	Z145	X146	Y146	Z146	X147	Y147	Z147	X148	Y148	Z148	X149	Y149	Z149	X150	Y150	Z150	X151	Y151	Z151	X152	Y152	Z152	X153	Y153	Z153	X154	Y154	Z154	X155	Y155	Z155	X156	Y156	Z156	X157	Y157	Z157	X158	Y158	Z158	X159	Y159	Z159	X160	Y160	Z160	X161	Y161	Z161	X162	Y162	Z162	X163	Y163	Z163	X164	Y164	Z164	X165	Y165	Z165	X166	Y166	Z166	X167	Y167	Z167	X168	Y168	Z168	X169	Y169	Z169	X170	Y170	Z170	X171	Y171	Z171	X172	Y172	Z172	X173	Y173	Z173	X174	Y174	Z174	X175	Y175	Z175	X176	Y176	Z176	X177	Y177	Z177	X178	Y178	Z178	X179	Y179	Z179	X180	Y180	Z180	X181	Y181	Z181	X182	Y182	Z182	X183	Y183	Z183	X184	Y184	Z184	X185	Y185	Z185	X186	Y186	Z186	X187	Y187	Z187	X188	Y188	Z188	X189	Y189	Z189	X190	Y190	Z190	X191	Y191	Z191	X192	Y192	Z192	X193	Y193	Z193	X194	Y194	Z194	X195	Y195	Z195	X196	Y196	Z196	X197	Y197	Z197	X198	Y198	Z198	X199	Y199	Z199	X200	Y200	Z200	X201	Y201	Z201	X202	Y202	Z202	X203	Y203	Z203	X204	Y204	Z204	X205	Y205	Z205	X206	Y206	Z206	X207	Y207	Z207	X208	Y208	Z208	X209	Y209	Z209	X210	Y210	Z210	X211	Y211	Z211	X212	Y212	Z212	X213	Y213	Z213	X214	Y214	Z214	X215	Y215	Z215	X216	Y216	Z216	X217	Y217	Z217	X218	Y218	Z218	X219	Y219	Z219	X220	Y220	Z220	X221	Y221	Z221	X222	Y222	Z222	X223	Y223	Z223	X224	Y224	Z224	X225	Y225	Z225	X226	Y226	Z226	X227	Y227	Z227	X228	Y228	Z228	X229	Y229	Z229	X230	Y230	Z230	X231	Y231	Z231	X232	Y232	Z232	X233	Y233	Z233	X234	Y234	Z234	X235	Y235	Z235	X236	Y236	Z236	X237	Y237	Z237	X238	Y238	Z238	X239	Y239	Z239	X240	Y240	Z240	

24	0.115	-97.20681	-462.46414	458.12524	220.73691	-462.58765	449.18799	-97.34680	-144.53299	448.75211	-88.26981	-453.09079	775.93079	-156.29977	-481.17230	71.59908	193.00348	-481.78784	25.74654	-164.75552	-123.86850	2.38684	-109.67510	-411.44836	425.84845	-6.58079	-370.80582	882.44171	231.80937	-370.85291	881.87036	-6.54278	-172.14743	881.93292	-6.10457	-370.29712	1081.09949	122.36628	-459.93417	457.58322	456.46527	-459.94098	457.45261	122.37304	-125.83517	457.43793	122.49689	-459.78888	791.68219	172.76314	-462.66629	68.89394	533.43817	-462.60022	121.54274	165.82057	-101.29233	116.00104	120.57404	-510.28217	426.47949	-50.88919	-419.00421	1531.47058	26.80270	-419.24219	1535.56604	-82.10972	-582.82379	1481.97083	40.75642	-590.64917	1479.71924	-14.28265	-574.58356	1345.70007	-7.40636	-565.43512	1081.42212	-12.33607	-433.22842	1298.25525	-13.04047	-360.04510	1196.28540	132.53931	-561.10364	1257.89844	-160.98459	-381.50534	870.91937	147.82301	-360.10629	893.96393	-37.10604	-579.06152	898.57214	57.41178	-582.94513	901.47375	121.69498	-483.97760	1325.94336	257.24207	-431.13907	1310.49170	381.90048	-372.50922	1277.36133	356.74850	-288.88956	1231.45471	484.32813	-306.94934	1265.73999	568.25916	-243.70872	1349.04285	577.04517	-228.79901	1278.09253	624.34082	-235.35945	1315.08643	-165.01054	-481.79581	1312.86194	-292.78857	-397.45197	1275.62488	-365.71848	-309.40518	1243.31787	-335.38913	-254.36578	1214.27454	-463.19849	-238.98839	1252.39856	-549.38843	-138.45375	1324.15393	-558.16498	-150.61755	1252.40039	-605.53784	-129.32179	1290.64575	230.83900	-440.20178	744.55322	203.07594	-459.05011	561.91974	188.64397	-379.89444	657.04834	216.05972	-450.21149	656.40558	199.98395	-451.35684	465.39117	44.74859	-468.51141	449.77521	138.59439	-427.63843	332.47366	166.02673	-430.26614	149.06935	219.22357	-463.71332	251.34242	154.73204	-434.93964	240.75481	216.30284	-467.08038	70.14042	136.94640	-459.04044	68.73340	191.43994	-521.27954	40.23616	164.57976	-365.15622	45.99351	220.15631	-387.84436	37.10038	176.09109	-306.92120	27.60313	-200.52060	-413.25705	759.14984	-174.67320	-425.77808	570.87561	-145.20839	-355.77692	669.86591	-187.82002	-415.98190	665.32379	-177.23572	-466.17972	466.25076	-17.17789	-458.74857	449.99966	-123.57021	-430.18970	347.44916	-140.44411	-441.33887	166.00677	-194.04066	-478.99280	265.94653	-130.85300	-444.52707	256.54333	-188.71777	-494.12518	71.35335	-116.69709	-465.33328	70.68598	-147.66884	-532.74347	33.65378	-150.33646	-377.94244	51.10378	-204.26758	-404.18982	33.85751	-159.32755	-321.38184	25.08407	19.14598	-613.09399	762.67871	-152.70743	-479.72925	71.01967	-92.74789	-451.70221	776.04480	-87.10518	-461.48190	496.13657	-96.18012	-471.46555	496.41089	-106.16547	-462.38837	496.43460	-97.96547	-446.58017	457.91638	-71.79308	-461.25552	457.72787	-95.30849	-493.87946	483.98312	-119.44381	-463.52167	458.47290	-89.36295	-457.99289	769.71857	-92.14096	-464.40939	776.21185	-95.52589	-458.11871	782.53802	-106.22559	-449.70279	734.86127	-96.24025	-458.77997	734.83759	-105.31519	-468.76358	735.11188	-124.49731	-459.83105	757.54480	-97.09052	-452.40475	496.16028	-123.05592	-319.29663	17.28140	-211.54388	-382.97394	-13.43234	-154.54065	-547.34369	-17.72933	-111.03486	-539.01697	-5.32323	-156.01567	-553.54706	76.88748	-165.41576	-508.60492	79.68750	-92.44443	-458.05582	776.12830	-118.41486	-505.87613	938.59052	-72.25227	-467.02094	806.54468	-166.26752	-420.63373	873.52051	-67.80496	-464.07016	744.20868	-97.20680	-462.46414	458.12521	-28.12092	-643.63452	901.80164	-109.93768	-433.73221	450.75238	-130.83032	-471.94705	146.70256	-137.24948	-487.18018	148.30231	-163.16127	-484.93451	151.91721	-161.68344	-441.65619	110.19180	-114.56414	-464.60812	80.70984	-139.89433	-496.17599	109.49943	-188.63069	-494.15973	76.81371	-55.47311	-462.57227	452.14655	-91.39638	-477.00275	457.94058	-127.31964	-491.43326	463.73462	-112.66476	-455.01318	380.84259	-97.52995	-461.58801	378.96588	-103.94911	-476.82114	380.56564	-126.26856	-473.13242	383.60114	-145.96513	-465.37225	148.57925	-173.46739	-398.27069	666.63043	-152.68500	-450.17380	259.80081	24.00000	2.00000	2006.00000	1.78604	-475.90457	891.23230	6.37401	-451.20810	783.50256	1.78604	-475.90457	891.23230	0.00000	0.00000	0.00000	0.00000	0.00000	0.00000	-16.35995	-502.92984	1507.18164	-97.20680	-462.46414	458.12521	-147.66884	-532.74347	33.65378	-152.70743	-479.72925	71.01967	-6.58079	-370.80582	882.44165	122.36627	-459.93414	457.58319	191.43994	-521.27954	40.23616	176.62462	-463.06042	69.43690	-13.30936	-503.90601	1321.97766	0.00000	0.00000	0.00000	-6.58079	-370.80582	882.44165	176.62462	-463.06042	69.43690	104.49390	-437.72406	790.53076	110.35069	-459.13727	497.11557	121.35323	-468.01981	498.09756	130.26013	-456.99332	498.04129	120.61990	-443.34326	456.71796	95.82034	-462.79276	456.34891	124.48510	-491.86996	485.97714	145.59396	-457.43283	458.66318	102.21767	-445.02921	784.05670	105.89099	-450.99677	791.22290	101.53072	-444.40628	797.38843	119.65018	-435.00116	747.64667	110.74328	-446.02768	747.70294	121.74583	-454.91022	748.68494	139.40529	-441.72159	772.42206	119.25759	-448.11075	497.05930	128.83813	-318.26297	5.47944	230.80576	-364.77127	-10.88607	206.97504	-537.14709	-8.90350	161.52504	-536.91992	-1.81503	198.42200	-537.94727	85.53804	198.71686	-491.95010	85.95449	105.19244	-444.36041	790.87683	113.19083	-489.82684	955.87390	82.15153	-456.32141	818.06696	157.98047	-398.16473	897.71729	86.59884	-453.37064	755.73096	122.36627	-459.93414	457.58319	49.08098	-638.28479	907.56281	126.60854	-428.80197	450.01035	154.18852	-461.25281	145.43727	164.58904	-474.13315	146.99489	188.94180	-464.79984	150.32394	175.14516	-423.75443	108.48913	135.83952	-458.99423	79.53312	169.22560	-482.24448	108.13274	215.23938	-467.00156	74.86655	82.17297	-471.59033	452.05850	120.78772	-475.53146	457.48816	159.40247	-479.47263	462.91779	134.40186	-448.86139	380.02521	121.63351	-459.37704	378.32504	132.03403	-472.25739	379.88266	152.52531	-462.52997	382.66876	166.95686	-450.73715	147.13744	207.51964	-426.38211	654.50708	174.61490	-440.53931	244.29515	10.15287	-581.00330	900.02295	5.10914	-418.33902	769.93030	-13.30936	-503.90601	1321.97766	-80.00000	0.00000	0.00000	-80.00000	0.00000	0.00000	-19.20653	-579.20844	1483.23438	-101.02315	-382.56213	457.07471	-227.66884	-532.74347	33.65378	-182.39453	-405.44742	71.96300	-11.60599	-291.23300	875.89075	114.00291	-380.48047	453.43964	111.43994	-521.27954	40.23616	184.67982	-383.46844	69.92187	-13.32661	-424.07446	1327.16663	200.00000	0.00000	0.00000	0.00000	0.00000	80.00000	0.00000	0.00000	80.00000	-18.02261	-526.83069	1583.50977	-96.00899	-461.35538	538.10858	-147.66884	-532.74347	113.65378	-141.36472	-476.20074	150.13283	-12.93991	-364.66171	961.95148	118.25400	-456.20502	537.39038	191.43994	-521.27954	120.23616	165.54959	-462.42227	148.66403	-16.10533	-509.09241	1401.76038	0.00000	200.00000	0.00000	0.00000	80.00000	0.00000	0.00000	80.00000	0.00000	-96.29200	-499.71622	1506.44678	-17.30686	-458.66431	456.87598	-147.66884	-452.74347	33.65378	-79.29068	-450.23749	59.17831	73.00758	-365.29068	888.38086	201.82156	-451.37793	461.27753	191.43994	-441.27954	40.23616	255.44376	-471.10492	80.51971	66.64176	-504.07013	1324.76892	0.00000	0.00000	200.00000	-0.10099	0.10015	0.07719	0.06180	-0.06848	-0.00765	-247.66884	-532.74347	33.65378	-147.66884	-432.74347	33.65378	91.43994	-521.27954	40.23616	191.43994	-421.27954	40.23616 
25	0.120	-97.21371	-462.43900	458.12073	220.74658	-462.56158	449.22171	-97.35236	-144.49115	448.78696	-88.31492	-453.10498	775.94397	-156.28712	-481.14148	71.58540	193.02516	-481.75510	25.76112	-164.73573	-123.82706	2.39816	-109.69087	-411.44321	425.84906	-6.59301	-370.79172	882.43811	231.80026	-370.84244	881.82269	-6.55217	-172.13074	881.89008	-6.08002	-370.24377	1081.09839	122.39145	-459.91974	457.56247	456.49625	-459.92346	457.49051	122.39516	-125.81497	457.48242	122.46342	-459.83969	791.66724	172.77477	-462.66449	68.87741	533.44720	-462.59714	121.50690	165.83681	-101.29288	115.96118	120.60455	-510.25665	426.46338	-50.87468	-419.01483	1531.46838	26.78898	-419.23941	1535.56653	-82.12140	-582.82635	1481.98145	40.79160	-590.64850	1479.72473	-14.25543	-574.60016	1345.69543	-7.39037	-565.36816	1081.40186	-12.32806	-433.25275	1298.25024	-13.06297	-360.04303	1196.28381	132.54912	-561.11688	1257.88196	-161.00096	-381.48578	870.93817	147.81494	-360.09760	893.93799	-37.10577	-579.05597	898.56982	57.40097	-582.91895	901.48676	121.69548	-483.98755	1325.93225	257.22717	-431.17816	1310.48254	381.90106	-372.51740	1277.35400	356.74380	-288.88974	1231.48853	484.33386	-306.95255	1265.74170	568.24585	-243.72096	1349.05115	577.02954	-228.78804	1278.10242	624.33643	-235.33737	1315.08569	-165.00710	-481.82504	1312.86768	-292.76950	-397.45218	1275.65662	-365.62714	-309.43204	1243.33044	-335.40527	-254.42191	1214.33008	-463.09323	-239.00974	1252.33496	-549.38385	-138.48203	1324.21497	-558.20062	-150.66571	1252.50708	-605.53607	-129.36874	1290.72656	230.83104	-440.20612	744.54584	203.08510	-459.03308	561.91223	188.27841	-379.83112	656.69232	216.08789	-450.20178	656.41187	200.02174	-451.35269	465.37192	44.76114	-468.48679	449.75302	138.58153	-427.67212	332.47073	166.01291	-430.26547	149.06894	219.23425	-463.69434	251.33868	154.71115	-434.93585	240.75914	216.29274	-467.08237	70.15172	136.97952	-459.03580	68.68878	191.40791	-521.25183	40.14043	164.59007	-365.16281	45.98839	220.16214	-387.83102	37.10015	175.94011	-306.94189	27.60452	-200.54214	-413.26242	759.14508	-174.67128	-425.77731	570.87262	-145.22137	-355.76608	669.87634	-187.82191	-415.96753	665.32361	-177.22748	-466.16055	466.24728	-17.19994	-458.71735	449.99411	-123.55989	-430.17487	347.44809	-140.43488	-441.33954	166.00430	-194.05302	-478.98764	265.94193	-130.85721	-444.51056	256.54526	-188.68335	-494.09396	71.31958	-116.70671	-465.30109	70.69282	-147.38377	-532.60901	33.46574	-150.35086	-377.94040	51.10723	-204.23424	-404.18890	33.87649	-159.32767	-321.37991	25.08036	19.10740	-613.09009	762.68188	-152.69504	-479.69751	71.00620	-92.78042	-451.69070	776.05658	-87.11465	-461.45761	496.13477	-96.18925	-471.44244	496.40790	-106.17582	-462.36566	496.43124	-97.97368	-446.55423	457.91254	-71.79882	-461.22821	457.72537	-95.31478	-493.85681	483.97858	-119.45174	-463.49835	458.46658	-89.39431	-457.98114	769.73004	-92.17244	-464.39847	776.22314	-95.55855	-458.10806	782.54962	-106.25571	-449.69040	734.87012	-96.26913	-458.76721	734.84680	-105.34373	-468.75204	735.11993	-124.52927	-459.82169	757.55286	-97.10122	-452.38080	496.15808	-123.21327	-319.15018	17.34746	-211.59009	-382.97174	-13.38688	-154.24843	-547.21698	-17.93516	-110.75140	-538.81580	-5.54853	-155.64465	-553.54517	76.67459	-165.13615	-508.62625	79.53902	-92.47643	-458.04459	776.13983	-118.42597	-505.85660	938.61029	-72.28002	-467.00925	806.55420	-166.28516	-420.61435	873.54199	-67.84142	-464.06168	744.21661	-97.21371	-462.43896	458.12070	-28.14153	-643.62225	901.81488	-109.95100	-433.70911	450.74866	-130.82254	-471.91406	146.69153	-137.23839	-487.14893	148.29025	-163.15121	-484.90933	151.90424	-161.68149	-441.62793	110.18045	-114.55502	-464.56799	80.69888	-139.87961	-496.14355	109.48625	-188.61578	-494.13672	76.79810	-55.47912	-462.53726	452.14368	-91.39987	-476.97644	457.93558	-127.32063	-491.41562	463.72748	-112.67035	-454.98755	380.83664	-97.53374	-461.55890	378.96024	-103.94959	-476.79379	380.55896	-126.27035	-473.11026	383.59375	-145.95914	-465.34268	148.56793	-173.47827	-398.26862	666.63135	-152.68260	-450.16736	259.79810	24.00000	2.00000	2006.00000	1.77730	-475.88959	891.23315	6.34466	-451.20038	783.49982	1.77730	-475.88959	891.23315	0.00000	0.00000	0.00000	0.00000	0.00000	0.00000	-16.35387	-502.93228	1507.18530	-97.21371	-462.43896	458.12070	-147.38377	-532.60901	33.46574	-152.69504	-479.69751	71.00620	-6.59301	-370.79169	882.43811	122.39144	-459.91974	457.56247	191.40791	-521.25183	40.14043	176.63614	-463.05908	69.42025	-13.29174	-503.92645	1321.97290	0.00000	0.00000	0.00000	-6.59301	-370.79169	882.43811	176.63614	-463.05908	69.42025	104.46816	-437.71957	790.51379	110.36938	-459.12271	497.09363	121.37074	-468.00696	498.07706	130.27933	-456.98151	498.02264	120.64746	-443.32831	456.69757	95.84485	-462.77469	456.32379	124.50134	-491.85751	485.95602	145.61971	-457.42166	458.64633	102.19194	-445.02429	784.03894	105.86334	-450.99274	791.20569	101.50291	-444.40176	797.37085	119.63200	-434.99707	747.63147	110.72341	-446.02255	747.68591	121.72477	-454.90680	748.66937	139.38252	-441.72125	772.41028	119.27797	-448.09726	497.03922	128.87489	-318.21857	5.49250	230.83502	-364.74506	-10.86809	206.95517	-537.11536	-9.00432	161.50282	-536.87994	-1.93121	198.36967	-537.97382	85.43376	198.67732	-491.97702	85.87984	105.16575	-444.35614	790.85974	113.18595	-489.81546	955.86017	82.12793	-456.31516	818.05414	157.97154	-398.15677	897.69183	86.56654	-453.36758	755.71649	122.39144	-459.91974	457.56247	49.06245	-638.27521	907.56488	126.63754	-428.78873	449.98911	154.20305	-461.24738	145.42018	164.60175	-474.12891	146.97763	188.95549	-464.79889	150.30573	175.16318	-423.75287	108.47134	135.85251	-458.98737	79.51756	169.23590	-482.24127	108.11604	215.24995	-467.00522	74.84863	82.19701	-471.57050	452.03934	120.81084	-475.51663	457.46771	159.42467	-479.46280	462.89609	134.42583	-448.84991	380.00510	121.65623	-459.36377	378.30551	132.05492	-472.24530	379.86298	152.54729	-462.52069	382.64822	166.97264	-450.73352	147.11975	207.39818	-426.35678	654.38348	174.60956	-440.54398	244.29279	10.14760	-580.98743	900.02832	5.07916	-418.33157	769.92590	-13.29174	-503.92645	1321.97290	-80.00000	0.00000	0.00000	-80.00000	0.00000	0.00000	-19.19424	-579.21210	1483.24121	-101.03645	-382.53720	457.07358	-227.38377	-532.60901	33.46574	-182.39908	-405.42255	71.95202	-11.61598	-291.21899	875.88397	114.03969	-380.46475	453.42062	111.40791	-521.25183	40.14043	184.70195	-383.46820	69.90375	-13.31836	-424.09534	1327.16809	200.00000	0.00000	0.00000	0.00000	0.00000	80.00000	0.00000	0.00000	80.00000	-18.01336	-526.83008	1583.51440	-96.02225	-461.33374	538.10419	-147.38377	-532.60901	113.46574	-141.35643	-476.17041	150.12001	-12.94056	-364.64340	961.94849	118.26682	-456.19312	537.36908	191.40791	-521.25183	120.14043	165.56372	-462.41827	148.64772	-16.08286	-509.11951	1401.75525	0.00000	200.00000	0.00000	0.00000	80.00000	0.00000	0.00000	80.00000	0.00000	-96.28621	-499.72556	1506.45142	-17.31398	-458.63260	456.87790	-147.38377	-452.60901	33.46574	-79.28451	-450.18845	59.16940	72.99643	-365.27942	888.36572	201.84731	-451.37463	461.26993	191.40791	-441.25183	40.14043	255.45456	-471.11392	80.50064	66.65955	-504.08118	1324.75977	0.00000	0.00000	200.00000	-0.10099	0.10015	0.07719	0.06180	-0.06848	-0.00765	-247.38377	-532.60901	33.46574	-147.38377	-432.60901	33.46574	91.40791	-521.25183	40.14043	191.40791	-421.25183	40.14043 
